<svg width="25" height="26" viewBox="0 0 25 26" fill="none" xmlns="http://www.w3.org/2000/svg">
<path d="M19.0649 6.47912V6.49371M0.835938 7.20828C0.835937 5.6612 1.45051 4.17748 2.54447 3.08353C3.63842 1.98958 5.12214 1.375 6.66922 1.375H18.3358C19.8829 1.375 21.3666 1.98958 22.4605 3.08353C23.5545 4.17748 24.1691 5.6612 24.1691 7.20828V18.8748C24.1691 20.4219 23.5545 21.9056 22.4605 22.9996C21.3666 24.0936 19.8829 24.7081 18.3358 24.7081H6.66922C5.12214 24.7081 3.63842 24.0936 2.54447 22.9996C1.45051 21.9056 0.835938 20.4219 0.835938 18.8748V7.20828ZM8.12754 13.0416C8.12754 14.2019 8.58847 15.3147 9.40894 16.1351C10.2294 16.9556 11.3422 17.4165 12.5025 17.4165C13.6628 17.4165 14.7756 16.9556 15.5961 16.1351C16.4165 15.3147 16.8775 14.2019 16.8775 13.0416C16.8775 11.8813 16.4165 10.7685 15.5961 9.948C14.7756 9.12753 13.6628 8.6666 12.5025 8.6666C11.3422 8.6666 10.2294 9.12753 9.40894 9.948C8.58847 10.7685 8.12754 11.8813 8.12754 13.0416Z" stroke="#333333" stroke-width="1.16666" stroke-linecap="round" stroke-linejoin="round"/>
</svg>
