<svg width="26" height="26" viewBox="0 0 26 26" fill="none" xmlns="http://www.w3.org/2000/svg">
<path d="M7.28641 11.5832V18.8748M7.28641 7.20828V7.22287M13.1197 18.8748V11.5832M18.953 18.8748V14.4999C18.953 13.7263 18.6457 12.9845 18.0987 12.4375C17.5517 11.8905 16.8099 11.5832 16.0363 11.5832C15.2628 11.5832 14.5209 11.8905 13.974 12.4375C13.427 12.9845 13.1197 13.7263 13.1197 14.4999M1.45312 4.29164C1.45312 3.5181 1.76041 2.77624 2.30739 2.22926C2.85437 1.68229 3.59622 1.375 4.36977 1.375H21.8696C22.6432 1.375 23.385 1.68229 23.932 2.22926C24.479 2.77624 24.7863 3.5181 24.7863 4.29164V21.7915C24.7863 22.565 24.479 23.3069 23.932 23.8539C23.385 24.4008 22.6432 24.7081 21.8696 24.7081H4.36977C3.59622 24.7081 2.85437 24.4008 2.30739 23.8539C1.76041 23.3069 1.45313 22.565 1.45312 21.7915V4.29164Z" stroke="#333333" stroke-width="1.16666" stroke-linecap="round" stroke-linejoin="round"/>
</svg>
