<svg width="128" height="26" viewBox="0 0 128 26" fill="none" xmlns="http://www.w3.org/2000/svg">
<path d="M0.834532 8.49558L5.01891 12.3183C5.11799 12.4052 5.17626 12.5326 5.17626 12.6658L5.33362 17.6122C5.33362 17.6875 5.35693 17.757 5.38607 17.8207L7.73468 22.3443C7.80461 22.4775 8.00859 22.4254 8.00859 22.2748L7.97362 18.6142C7.97362 18.5158 7.94448 18.4173 7.8862 18.3362L6.84885 16.8535C6.79057 16.7724 6.76143 16.6739 6.76143 16.5755V14.2007C6.74978 13.9227 6.98289 13.7026 7.2568 13.7084L9.85601 13.7721C10.1241 13.7779 10.3397 13.9922 10.3397 14.2586V16.6508C10.3514 16.755 10.3164 16.8593 10.2523 16.9461L9.35481 18.1451C9.29071 18.232 9.25574 18.3304 9.25574 18.4347V22.4312C9.24992 22.5644 9.43058 22.605 9.48886 22.4891L12.1697 17.2647C12.2105 17.1894 12.2279 17.1025 12.2221 17.0157L11.9832 12.66C11.9773 12.5037 12.0414 12.3589 12.158 12.2604L16.0801 8.97632C16.3948 8.70988 16.8785 8.92419 16.8902 9.33542L17.0184 13.4304C17.0184 13.5346 16.9951 13.6331 16.9368 13.72L9.12171 25.304C8.92939 25.5878 8.50395 25.5936 8.30581 25.3098L0.403274 14.0559C0.350823 13.9806 0.321683 13.8937 0.315855 13.8069L0.00115211 8.88944C-0.027987 8.44924 0.502344 8.20019 0.828703 8.49558H0.834532Z" fill="#353535"/>
<path d="M8.66119 -0.000473621L2.5293 6.09375L8.66119 12.188L14.7931 6.09375L8.66119 -0.000473621Z" fill="#353535"/>
<path d="M8.67897 11.7861L6.02148 11.6992" stroke="#353535" stroke-width="0.25" stroke-miterlimit="10"/>
<path d="M5.75195 11.3955V11.9805H6.34056V11.3955H5.75195Z" fill="#353535" stroke="#353535" stroke-width="0.5" stroke-miterlimit="10"/>
<path d="M8.41016 11.7109L11.0735 11.8036" stroke="#353535" stroke-width="0.25" stroke-miterlimit="10"/>
<path d="M9.15915 11.7784L8.54102 11.1641L7.92288 11.7784L8.54102 12.3927L9.15915 11.7784Z" fill="#353535" stroke="#353535" stroke-width="0.5" stroke-miterlimit="10"/>
<path d="M11.3347 11.5117H10.7461V12.0967H11.3347V11.5117Z" fill="#353535" stroke="#353535" stroke-width="0.5" stroke-miterlimit="10"/>
<path d="M22.3926 9.16164H24.409C24.712 9.16164 24.8985 9.31802 24.9568 9.63658L26.9266 18.1914H27.084L29.0072 9.63658C29.0654 9.31802 29.2577 9.16164 29.5783 9.16164H31.5947C31.9152 9.16164 32.0318 9.31802 31.9385 9.63658L29.0538 20.2592C28.9955 20.5951 28.7857 20.7573 28.436 20.7573H25.5279C25.2074 20.7573 25.0034 20.5893 24.9102 20.2592L22.0487 9.64238C21.9555 9.32381 22.072 9.16743 22.3926 9.16743V9.16164ZM42.213 20.7631H37.1545C35.9481 20.7631 35.0156 20.4445 34.3629 19.8074C33.7044 19.1703 33.378 18.2551 33.378 17.0562V12.8685C33.378 11.6696 33.7044 10.7544 34.3629 10.1173C35.0215 9.4802 35.9481 9.16164 37.1545 9.16164H38.9611C40.1674 9.16164 41.0999 9.4802 41.7526 10.1173C42.4112 10.7544 42.7375 11.6696 42.7375 12.8685V15.7588C42.7375 16.0773 42.5802 16.2337 42.2596 16.2337H36.5134C36.3327 16.2337 36.2395 16.3148 36.2395 16.4828V16.9809C36.2395 17.45 36.3386 17.7918 36.5367 18.0061C36.7523 18.203 37.102 18.3015 37.5915 18.3015H42.213C42.5335 18.3015 42.6909 18.4694 42.6909 18.7996V20.2997C42.6909 20.4677 42.6501 20.5893 42.5743 20.6646C42.5161 20.7225 42.3937 20.7573 42.2072 20.7573L42.213 20.7631ZM36.5134 14.2992H39.6255C39.7945 14.2992 39.8761 14.2181 39.8761 14.0501V12.9554C39.8761 12.4689 39.777 12.1272 39.5788 11.9302C39.3807 11.7333 39.0368 11.6348 38.5473 11.6348H37.5857C37.0962 11.6348 36.7523 11.7333 36.5542 11.9302C36.356 12.1272 36.257 12.4689 36.257 12.9554V14.0501C36.257 14.2181 36.3386 14.2992 36.5076 14.2992H36.5134ZM52.3593 18.7359V20.3055C52.3593 20.4735 52.3185 20.5951 52.2427 20.6704C52.1844 20.7283 52.062 20.7631 51.8756 20.7631H48.4663C47.2599 20.7631 46.3275 20.4445 45.6747 19.8074C45.0162 19.1703 44.6898 18.2551 44.6898 17.0562V12.8685C44.6898 11.6696 45.0162 10.7544 45.6747 10.1173C46.3333 9.4802 47.2599 9.16164 48.4663 9.16164H51.8756C52.1961 9.16164 52.3534 9.31802 52.3534 9.63658V11.2062C52.3534 11.3742 52.3126 11.4958 52.2369 11.5711C52.1786 11.629 52.0562 11.6638 51.8697 11.6638H48.915C48.443 11.6638 48.0991 11.768 47.8835 11.9824C47.6853 12.1793 47.5863 12.521 47.5863 13.0075V16.923C47.5863 17.4095 47.6853 17.757 47.8835 17.9713C48.0991 18.1682 48.443 18.2667 48.915 18.2667H51.8697C52.1903 18.2667 52.3476 18.4231 52.3476 18.7416L52.3593 18.7359ZM54.5855 11.658H53.6705C53.4899 11.658 53.3558 11.629 53.2801 11.5653C53.2218 11.5074 53.1868 11.3858 53.1868 11.2004V9.63079C53.1868 9.31223 53.35 9.15585 53.6705 9.15585H54.5855C54.7545 9.15585 54.8361 9.07476 54.8361 8.90679V6.74636C54.8361 6.4278 55.0051 6.27142 55.3373 6.27142H57.2605C57.581 6.27142 57.7383 6.4278 57.7383 6.74636V8.90679C57.7383 9.07476 57.8316 9.15585 58.0123 9.15585H59.7956C60.1161 9.15585 60.2735 9.31223 60.2735 9.63079V11.2004C60.2735 11.3684 60.2327 11.49 60.1569 11.5653C60.0986 11.6232 59.9762 11.658 59.7897 11.658H58.0064C57.8258 11.658 57.7325 11.7391 57.7325 11.9071V16.9345C57.7325 17.4037 57.8374 17.7454 58.0531 17.9597C58.2687 18.1567 58.6184 18.2551 59.1079 18.2551H60.0229C60.3434 18.2551 60.5007 18.4115 60.5007 18.7301V20.2997C60.5007 20.4677 60.4599 20.5893 60.3842 20.6646C60.3259 20.7225 60.2035 20.7573 60.017 20.7573H58.6184C57.412 20.7573 56.4737 20.4387 55.8035 19.8016C55.145 19.1645 54.8186 18.2551 54.8186 17.0735V11.9071C54.8186 11.7391 54.737 11.658 54.568 11.658H54.5855ZM67.9895 20.7573H65.9498C64.7434 20.7573 63.8109 20.4387 63.1582 19.8016C62.4997 19.1645 62.1733 18.2493 62.1733 17.0504V12.8627C62.1733 11.6638 62.4997 10.7487 63.1582 10.1115C63.8168 9.47441 64.7434 9.15585 65.9498 9.15585H67.9895C69.1784 9.15585 70.105 9.4802 70.7577 10.1347C71.4279 10.7718 71.7659 11.6812 71.7659 12.8627V17.0504C71.7659 18.232 71.4279 19.1529 70.7577 19.8016C70.0992 20.4387 69.1784 20.7573 67.9895 20.7573ZM66.3868 18.2783H67.5524C68.042 18.2783 68.3858 18.1798 68.5839 17.9829C68.7996 17.786 68.9045 17.4442 68.9045 16.9577V12.9554C68.9045 12.4689 68.7996 12.1272 68.5839 11.9302C68.3858 11.7333 68.042 11.6348 67.5524 11.6348H66.3868C65.8973 11.6348 65.5535 11.7333 65.3553 11.9302C65.1572 12.1272 65.0581 12.4689 65.0581 12.9554V16.9577C65.0581 17.4442 65.1572 17.786 65.3553 17.9829C65.5535 18.1798 65.8973 18.2783 66.3868 18.2783ZM76.4748 20.7573H74.5283C74.2078 20.7573 74.0504 20.5951 74.0504 20.2823V9.63658C74.0504 9.31802 74.2078 9.16164 74.5283 9.16164H76.4748C76.7954 9.16164 76.9527 9.31802 76.9527 9.63658V10.4127H77.0459C77.215 10.0015 77.5122 9.6945 77.9376 9.4802C78.363 9.26589 78.8176 9.16164 79.2897 9.16164H80.1114C80.4144 9.16164 80.5718 9.31802 80.5718 9.63658V11.2062C80.5718 11.3858 80.531 11.519 80.4552 11.5943C80.3969 11.6522 80.2804 11.6754 80.1114 11.6638H78.532C77.4772 11.6638 76.9527 12.2546 76.9527 13.4362V20.2823C76.9527 20.6009 76.7954 20.7573 76.4748 20.7573ZM84.4531 20.7573H82.5066C82.1861 20.7573 82.0287 20.5951 82.0287 20.2823V9.63658C82.0287 9.31802 82.1919 9.16164 82.5066 9.16164H84.4531C84.7736 9.16164 84.9368 9.31802 84.9368 9.63658V10.3895H85.0301C85.3681 9.57287 86.1141 9.16164 87.2738 9.16164H88.0081C90.4033 9.16164 91.6039 10.3953 91.6039 12.8685V20.2823C91.6039 20.6009 91.4349 20.7573 91.1027 20.7573H89.1795C88.859 20.7573 88.7016 20.5951 88.7016 20.2823V13.0018C88.7016 12.5152 88.5967 12.1735 88.3811 11.9766C88.1829 11.7623 87.8391 11.658 87.3495 11.658H86.5278C85.473 11.658 84.9485 12.2372 84.9485 13.3898V20.2823C84.9485 20.6009 84.7853 20.7573 84.4648 20.7573H84.4531ZM98.1077 20.7573H97.5599C96.3535 20.7573 95.4211 20.4387 94.7684 19.8016C94.1098 19.1645 93.7835 18.2493 93.7835 17.0504V12.8627C93.7835 11.6638 94.1098 10.7487 94.7684 10.1115C95.4269 9.47441 96.3535 9.15585 97.5599 9.15585H102.846C103.184 9.15585 103.347 9.31223 103.347 9.63079V20.2765C103.347 20.5951 103.178 20.7515 102.846 20.7515H100.923C100.602 20.7515 100.445 20.5893 100.445 20.2765V19.5236H100.351C100.182 19.9348 99.8852 20.2418 99.4598 20.4561C99.0344 20.653 98.5798 20.7515 98.1077 20.7515V20.7573ZM100.445 16.5233V11.9071C100.445 11.7391 100.351 11.658 100.171 11.658H98.0203C97.5308 11.658 97.1869 11.7623 96.9888 11.9766C96.7906 12.1735 96.6916 12.5152 96.6916 13.0018V16.9172C96.6916 17.4037 96.7906 17.7512 96.9888 17.9655C97.1869 18.1624 97.5308 18.2609 98.0203 18.2609H98.8653C99.9202 18.2609 100.445 17.6817 100.445 16.5291V16.5233ZM106.109 11.6522H105.194C105.014 11.6522 104.88 11.6232 104.804 11.5595C104.746 11.5016 104.711 11.38 104.711 11.1946V9.625C104.711 9.30644 104.874 9.15005 105.189 9.15005H106.104C106.273 9.15005 106.354 9.06897 106.354 8.901V6.74057C106.354 6.42201 106.523 6.26563 106.855 6.26563H108.778C109.099 6.26563 109.256 6.42201 109.256 6.74057V8.901C109.256 9.06897 109.35 9.15005 109.53 9.15005H111.314C111.634 9.15005 111.791 9.30644 111.791 9.625V11.1946C111.791 11.3626 111.751 11.4842 111.675 11.5595C111.617 11.6175 111.494 11.6522 111.308 11.6522H109.524C109.344 11.6522 109.251 11.7333 109.251 11.9013V16.9287C109.251 17.3979 109.355 17.7396 109.571 17.9539C109.787 18.1509 110.136 18.2493 110.626 18.2493H111.541C111.861 18.2493 112.019 18.4057 112.019 18.7243V20.2939C112.019 20.4619 111.978 20.5835 111.902 20.6588C111.844 20.7167 111.722 20.7515 111.535 20.7515H110.136C108.93 20.7515 107.992 20.4329 107.322 19.7958C106.663 19.1587 106.337 18.2493 106.337 17.0678V11.9013C106.337 11.7333 106.255 11.6522 106.086 11.6522H106.109ZM114.041 7.19235V5.21148C114.041 4.91029 114.193 4.75391 114.501 4.75391H116.495C116.798 4.75391 116.955 4.89871 116.955 5.18831V7.19235C116.955 7.49353 116.803 7.64992 116.495 7.64992H114.501C114.198 7.64992 114.041 7.49933 114.041 7.19235ZM114.041 20.2765V9.63079C114.041 9.31223 114.193 9.15585 114.501 9.15585H116.471C116.792 9.15585 116.949 9.31223 116.949 9.63079V20.2765C116.949 20.4735 116.908 20.6009 116.833 20.6646C116.774 20.7225 116.658 20.7573 116.489 20.7573H114.519C114.198 20.7573 114.041 20.5951 114.041 20.2823V20.2765ZM127.02 18.7301V20.2997C127.02 20.4677 126.979 20.5893 126.903 20.6646C126.845 20.7225 126.722 20.7573 126.536 20.7573H123.127C121.92 20.7573 120.988 20.4387 120.335 19.8016C119.677 19.1645 119.35 18.2493 119.35 17.0504V12.8627C119.35 11.6638 119.677 10.7487 120.335 10.1115C120.994 9.47441 121.92 9.15585 123.127 9.15585H126.536C126.856 9.15585 127.014 9.31223 127.014 9.63079V11.2004C127.014 11.3684 126.973 11.49 126.897 11.5653C126.839 11.6232 126.717 11.658 126.53 11.658H123.575C123.103 11.658 122.759 11.7623 122.544 11.9766C122.346 12.1735 122.247 12.5152 122.247 13.0018V16.9172C122.247 17.4037 122.346 17.7512 122.544 17.9655C122.759 18.1624 123.103 18.2609 123.575 18.2609H126.53C126.851 18.2609 127.008 18.4173 127.008 18.7359L127.02 18.7301Z" fill="#353535"/>
</svg>
