<svg width="203" height="125" viewBox="0 0 203 125" fill="none" xmlns="http://www.w3.org/2000/svg">
<path d="M33.0562 50C29.6772 50 26.8054 50.3317 23.7101 51.8953C20.2447 53.6459 17.105 55.8269 14.9562 59.05C13.4053 61.3765 13.6532 64.2784 13.6532 66.9628C13.6532 71.1648 15.8121 74.8085 18.581 77.837C19.8662 79.2427 21.7897 81.2292 23.5798 81.9829C25.4324 82.763 27.3 83.0159 29.2301 83.4755C33.0992 84.3967 37.1016 82.789 40.1398 80.443C43.6049 77.7674 46.925 74.5996 48.7397 70.5165C50.6233 66.2782 48.7905 59.3363 45.6835 56.0175C43.9373 54.1522 41.9863 52.3106 39.5713 51.3267C37.19 50.3565 34.5698 50.3662 32.0493 50.5686C29.9826 50.7345 27.4246 50.7902 25.5935 51.7058" stroke="#333333" stroke-width="1.30674" stroke-linecap="round"/>
<path d="M30.7111 83.2617C25.8266 83.8681 21.7223 85.1191 17.1124 86.8154C12.8144 88.3969 8.51053 90.0865 5.00628 93.1172C2.8305 94.999 1.5 97.6784 1.5 100.533" stroke="#333333" stroke-width="1.30674" stroke-linecap="round"/>
<path d="M30.9238 83.2617C34.5247 83.4104 38.5652 83.1298 41.952 84.624C46.2754 86.5313 50.316 88.8516 54.3306 91.3167C56.829 92.8508 59.4117 95.284 60.9878 97.7606" stroke="#333333" stroke-width="1.30674" stroke-linecap="round"/>
<path d="M67.5974 97.332C62.0712 97.332 56.5069 99.1217 51.4046 101.123C48.9209 102.097 45.7989 103.808 44.7829 106.5C44.547 107.126 44.147 107.673 43.93 108.301C43.6086 109.231 43.5293 110.234 43.1838 111.156C42.8969 111.921 42.4375 112.702 42.4375 113.537" stroke="#DF5009" stroke-width="1.30674" stroke-linecap="round"/>
<path d="M92.7582 106.714C90.3717 103.021 87.3714 100.031 83.0212 98.6594C80.747 97.9423 77.8848 97.4701 75.4993 97.3445C73.9002 97.2604 72.434 96.9062 70.8203 96.9062C69.1545 96.9062 67.4665 97.2345 65.8926 97.7591" stroke="#DF5009" stroke-width="1.30674" stroke-linecap="round"/>
<path d="M69.0901 64.0703C66.6895 64.832 63.5938 65.276 61.4142 66.6289C59.6803 67.7051 58.2008 69.5721 56.8892 71.0829C55.1654 73.0683 53.9499 75.5906 53.3118 78.1428C52.3529 81.9786 54.4399 85.0629 55.8705 88.4247C57.0713 91.2466 60.8335 93.6876 63.7122 94.3001C65.187 94.6139 66.6806 94.6197 68.1898 94.7265C69.7915 94.8399 72.0749 95.1265 73.6151 94.5607C75.438 93.8911 77.2229 93.3694 78.6376 91.9547C80.2174 90.3748 81.4672 88.3992 82.3097 86.3399C83.1078 84.3889 83.7802 82.4537 83.8022 80.3224C83.8245 78.1596 84.4117 75.6962 83.7548 73.5941C82.7202 70.2833 80.5959 67.3206 77.1924 66.2499C74.8786 65.5219 72.6196 64.999 70.2035 64.7574C68.1776 64.5548 67.4249 65.4817 66.5314 67.2686" stroke="#DF5009" stroke-width="1.30674" stroke-linecap="round"/>
<path d="M105.551 56.8211C103.577 56.6895 101.608 56.5883 99.6287 56.6079C97.0683 56.6333 94.5345 57.7794 92.1423 58.5743C89.7103 59.3823 87.4357 60.4743 86.1485 62.7913C85.3086 64.3031 84.0238 65.5331 83.5898 67.2689" stroke="#333333" stroke-width="1.30674" stroke-linecap="round"/>
<path d="M106.617 56.6094C107.616 56.6094 108.615 56.6094 109.614 56.6094C111.331 56.6094 113.08 57.5407 114.637 58.1256C117.698 59.2757 120.23 60.5876 122.94 62.3189C125.266 63.8051 127.775 66.0883 129.005 68.5497" stroke="#333333" stroke-width="1.30674" stroke-linecap="round"/>
<path d="M144.144 1.38281C137.865 3.26638 132.133 5.95107 129.858 12.4702C129.538 13.3875 129.14 14.3534 129.029 15.325C128.935 16.1404 129.049 16.8965 128.792 17.6941C128.309 19.19 128.488 21.1075 128.804 22.6337C129.744 27.1808 134.176 29.4652 137.368 32.2404C139.654 34.2283 142.182 33.8237 144.854 32.9867C147.125 32.2754 149.378 31.5823 151.594 30.6887C153.665 29.8537 155.008 28.5165 156.724 27.1824C158.346 25.9207 159.784 24.2205 159.91 22.077C160.026 20.1057 159.514 18.6018 158.962 16.7346C157.034 10.2097 151.267 5.136 144.783 3.51501" stroke="#DF5009" stroke-width="1.30674" stroke-linecap="round"/>
<path d="M64.8258 2.23717C59.1526 2.36911 53.9641 7.31416 52.3407 12.5665C51.682 14.6973 51.4591 17.2783 52.3643 19.3303C54.5033 24.1785 58.6336 29.6934 64.1862 30.7612C67.7931 31.4549 70.829 30.0507 73.8877 28.2381C78.298 25.6246 80.6752 20.6684 81.5754 15.7174C82.1072 12.7925 80.8177 9.82234 79.2774 7.40182C78.0474 5.46896 76.3895 3.4307 74.1957 2.56885C71.8587 1.65077 68.9093 1.12046 66.4131 1.51459C64.3039 1.84763 61.7336 2.09541 59.9218 3.30327" stroke="#DF5009" stroke-width="1.30674" stroke-linecap="round"/>
<path d="M65.8927 34.2202C62.1422 33.8649 59.2646 33.8004 55.4923 34.5519C52.6816 35.1119 50.2593 36.4617 47.8638 37.9397C45.6569 39.3014 43.5278 40.5205 41.8226 42.5358C40.8546 43.6798 40.0686 44.918 39.2402 46.1605" stroke="#DF5009" stroke-width="1.30674" stroke-linecap="round"/>
<path d="M113.227 28.2514C111.289 26.5904 108.166 25.7272 105.622 25.5269C101.457 25.1989 96.4958 24.5137 93.2912 27.7183C91.6452 29.3642 90.253 31.3743 89.6901 33.6885C88.779 37.4341 89.233 42.0261 90.9576 45.4274C92.4153 48.3024 96.0973 49.8301 99.1073 50.4262C105.494 51.6908 113.92 50.6699 116.402 43.5795C117.562 40.2635 117.703 36.3562 117.065 32.9422C116.434 29.568 113.821 24.8398 110.029 24.8398" stroke="#333333" stroke-width="1.30674" stroke-linecap="round"/>
<path d="M144.997 35.0744C142.696 35.0744 140.236 34.8432 137.937 35.1218C135.491 35.4183 131.563 35.5694 129.551 37.3132C128.08 38.5874 126.558 39.6818 125.274 41.163C122.347 44.5405 120.528 48.8682 118.984 52.9849" stroke="#DF5009" stroke-width="1.30674" stroke-linecap="round"/>
<path d="M172.288 48.7186C171.208 47.1659 170.703 45.0676 169.469 43.6487C167.368 41.2321 165.604 38.3143 162.693 36.7783C160.731 35.7425 158.358 35.1091 156.131 35.0726C154.262 35.0419 152.083 35.4432 150.279 34.9778C148.548 34.531 146.778 34.6461 144.996 34.6461" stroke="#DF5009" stroke-width="1.30674" stroke-linecap="round"/>
<path d="M177.194 51.2778C174.482 51.8722 172.635 52.0953 170.513 53.8128C167.898 55.9288 165.728 57.9708 164.187 60.9675C163.276 62.7389 162.204 65.1934 162.813 67.2811C163.684 70.2658 164.741 73.6248 166.947 75.9047C168.472 77.4803 169.338 79.6256 171.01 81.0812C172.307 82.2099 173.692 82.1129 175.381 82.2894C178.064 82.5697 180.304 81.9897 182.903 81.4602C184.682 81.098 185.826 80.5916 187.476 79.8492C191.154 78.1939 192.861 74.2535 194.583 70.7756C196.222 67.4652 195.317 63.2997 194.417 59.9251C194.153 58.9361 193.826 57.9933 193.41 57.0584C192.949 56.0215 191.544 55.4506 190.65 54.9736C187.971 53.5435 185.21 52.1858 182.406 51.0172C179.576 49.8383 177.035 50.43 174.209 51.2778" stroke="#333333" stroke-width="1.30674" stroke-linecap="round"/>
<path d="M104.698 77.5039C102.341 77.9699 100.551 78.5292 98.444 79.6361C95.7642 81.0441 93.0888 82.3932 91.8105 85.2983C90.4493 88.3919 91.3959 91.552 92.1185 94.6325C92.5219 96.3524 94.1446 97.9025 95.1746 99.276C96.4382 100.961 97.7512 102.74 99.4983 103.955C102.542 106.073 105.914 106.562 109.567 105.649C112.654 104.877 116.392 103.917 118.439 101.29C120.529 98.6084 121.876 94.8765 120.358 91.5527C119.644 89.9875 119.176 88.0362 117.8 86.8974C116.296 85.653 114.738 84.2264 113.014 83.3082C109.612 81.4964 106.48 79.197 102.566 80.7022" stroke="#333333" stroke-width="1.30674" stroke-linecap="round"/>
<path d="M141.37 96.9048C139.475 96.9048 137.367 96.6494 135.495 97.0707C133.943 97.4199 132.395 97.7535 130.828 98.042C128.312 98.5052 125.316 98.8108 123.034 100.115C120.272 101.693 118.552 104.169 117.703 107.139" stroke="#333333" stroke-width="1.30674" stroke-linecap="round"/>
<path d="M141.159 63.6445C138.981 64.4469 136.895 64.9501 134.62 65.3503C132.986 65.6378 131.5 66.8711 130.213 67.8378C127.783 69.6638 126.069 72.4558 125.606 75.4664C125.098 78.7638 125.242 82.1304 126.755 85.156C128.067 87.7814 130.377 90.3394 132.891 91.8369C136.126 93.7642 141.133 95.0859 144.926 94.2534C147.174 93.7599 149.748 93.4034 151.607 92.0027C153.194 90.8061 154.33 89.3274 155.219 87.5488C157.137 83.7134 156.883 80.0277 155.978 75.9047C155.156 72.1612 153.094 68.9453 149.735 67.056C146.236 65.0881 142.454 65.295 138.6 65.7767" stroke="#333333" stroke-width="1.30674" stroke-linecap="round"/>
<path d="M179.111 84.9648C172.774 84.9648 165.677 85.3931 160.988 90.0821C159.979 91.0911 159.068 91.8391 158.524 93.1738C158.098 94.2195 157.925 95.2196 157.576 96.2655" stroke="#333333" stroke-width="1.30674" stroke-linecap="round"/>
<path d="M201.5 93.2833C200.667 92.147 199.892 90.8188 198.729 89.9784C197.034 88.7546 195.039 87.9018 193.114 87.1118C191.294 86.3654 189.279 86.2785 187.475 85.6074C185.689 84.9428 183.248 84.9549 181.351 84.6598C179.943 84.4407 178.614 84.3281 177.193 84.3281" stroke="#333333" stroke-width="1.30674" stroke-linecap="round"/>
<path d="M162.056 105.436C161.21 101.696 159.763 99.0142 156.003 97.5584C153.834 96.7189 151.313 96.8983 149.049 96.5278C146.684 96.1408 143.376 96.1683 141.16 96.9069" stroke="#333333" stroke-width="1.30674" stroke-linecap="round"/>
<path d="M79.752 123.56C81.3187 118.215 83.4098 112.904 88.873 110.767C90.0374 110.311 91.7431 109.701 92.9716 109.701C94.2913 109.701 95.5783 109.024 96.8924 108.836C98.5032 108.606 100.245 108.395 101.832 108.042C103.52 107.667 105.252 108.289 106.878 108.634C108.25 108.926 109.674 108.875 110.989 109.381C112.394 109.921 113.907 110.33 115.371 110.672C117.937 111.27 120.555 111.931 122.917 113.112C124.892 114.099 126.523 115.725 127.821 117.495C128.755 118.768 130.507 120.165 131.138 121.428" stroke="#333333" stroke-width="1.30674" stroke-linecap="round"/>
<path d="M65.6289 34.0537C67.1818 34.0537 68.7955 33.9955 70.3122 34.3987C72.5002 34.9803 74.4015 35.7111 76.3493 36.9285C77.299 37.522 78.2412 38.1842 79.1352 38.8625C79.8296 39.3892 80.4381 40.0395 81.1476 40.5403C82.5693 41.5438 83.7783 42.9383 84.634 44.4448C85.6434 46.222 85.8851 48.1848 86.6097 50.0481" stroke="#DF5009" stroke-width="1.30674" stroke-linecap="round"/>
</svg>
