<svg width="34" height="33" viewBox="0 0 34 33" fill="none" xmlns="http://www.w3.org/2000/svg">
<circle cx="16.9647" cy="16.5722" r="16.4042" fill="#D9D9D9"/>
<path d="M18.9346 13.9488H18.9411M11.0605 19.1981L14.3414 15.9173C14.9503 15.3313 15.701 15.3313 16.3099 15.9173L19.5907 19.1981M18.2784 17.8858L18.9346 17.2296C19.5435 16.6437 20.2941 16.6437 20.9031 17.2296L22.8716 19.1981M11.0605 12.6365C11.0605 12.1144 11.2679 11.6137 11.6371 11.2445C12.0063 10.8754 12.507 10.668 13.0291 10.668H20.9031C21.4251 10.668 21.9258 10.8754 22.295 11.2445C22.6642 11.6137 22.8716 12.1144 22.8716 12.6365V20.5105C22.8716 21.0326 22.6642 21.5333 22.295 21.9024C21.9258 22.2716 21.4251 22.479 20.9031 22.479H13.0291C12.507 22.479 12.0063 22.2716 11.6371 21.9024C11.2679 21.5333 11.0605 21.0326 11.0605 20.5105V12.6365Z" stroke="#A2A2A2" stroke-width="1.31234" stroke-linecap="round" stroke-linejoin="round"/>
</svg>
