<svg width="14" height="13" viewBox="0 0 14 13" fill="none" xmlns="http://www.w3.org/2000/svg">
<path d="M5.29164 1.07456C5.36603 0.925781 5.552 0.888588 5.84955 0.962975C6.1843 1.00017 6.38887 1.11175 6.46325 1.29772C5.90534 2.82268 5.42182 3.9757 5.01268 4.75678C4.64074 5.50066 4.30599 6.33753 4.00844 7.26738C3.74808 7.7881 3.50632 8.29022 3.28316 8.77374C3.05999 9.22007 2.89262 9.685 2.78104 10.1685C2.66945 10.5033 2.42769 10.838 2.05575 11.1728C1.721 11.4703 1.44205 11.7307 1.21888 11.9538C0.995718 12.1398 0.809747 12.1212 0.660971 11.898C0.549389 11.6377 0.530792 11.2843 0.60518 10.838C0.642374 10.0941 0.698165 9.44324 0.772553 8.88532C0.884136 8.32741 1.18169 7.80669 1.66521 7.32317C2.18593 6.83965 2.55787 6.26314 2.78104 5.59364C3.07859 4.96134 3.24596 4.47782 3.28316 4.14307C3.35754 3.80832 3.58071 3.3434 3.95265 2.74829C4.02704 2.67391 4.13862 2.50653 4.2874 2.24617C4.47337 1.94862 4.65934 1.68826 4.84531 1.4651C5.03128 1.20474 5.18006 1.07456 5.29164 1.07456ZM12.5445 1.07456C12.6189 0.925781 12.8049 0.888588 13.1024 0.962975C13.4372 1.00017 13.6417 1.11175 13.7161 1.29772C13.1582 2.82268 12.6747 3.9757 12.2655 4.75678C11.8936 5.50066 11.5589 6.33753 11.2613 7.26738C11.0009 7.7881 10.7592 8.29022 10.536 8.77374C10.3128 9.22007 10.1455 9.685 10.0339 10.1685C9.92231 10.5033 9.68055 10.838 9.3086 11.1728C8.97386 11.4703 8.6949 11.7307 8.47174 11.9538C8.24857 12.1398 8.0626 12.1212 7.91383 11.898C7.80224 11.6377 7.78365 11.2843 7.85803 10.838C7.89523 10.0941 7.95102 9.44324 8.02541 8.88532C8.13699 8.32741 8.43454 7.80669 8.91807 7.32317C9.43878 6.83965 9.81073 6.26314 10.0339 5.59364C10.3314 4.96134 10.4988 4.47782 10.536 4.14307C10.6104 3.80832 10.8336 3.3434 11.2055 2.74829C11.2799 2.67391 11.3915 2.50653 11.5403 2.24617C11.7262 1.94862 11.9122 1.68826 12.0982 1.4651C12.2841 1.20474 12.4329 1.07456 12.5445 1.07456Z" fill="#DF5009"/>
</svg>
