<svg width="127" height="194" viewBox="0 0 127 194" fill="none" xmlns="http://www.w3.org/2000/svg">
<path d="M125.93 98.582C125.522 99.9091 124.118 100.726 123.554 101.948C123.063 103.011 122.22 103.917 121.708 104.988C119.957 108.649 117.572 112.217 115.073 115.411C113.952 116.843 113.171 118.551 112.045 119.959C111.147 121.081 110.508 122.522 109.524 123.554C107.829 125.329 106.723 127.637 105.181 129.549C103.179 132.032 101.315 134.849 99.5835 137.535C98.905 138.588 98.0203 139.452 97.3638 140.503C96.6527 141.64 96.0466 142.844 95.313 143.965C93.8135 146.256 92.2694 148.501 90.8012 150.817C86.8022 157.127 82.2092 163.192 78.7136 169.805C77.5568 171.994 75.7302 173.904 74.4672 176.054C73.1081 178.368 71.4823 180.499 70.0037 182.737C68.6215 184.829 67.3013 186.964 65.7815 188.962C65.1599 189.779 64.7358 190.764 64.1529 191.616C63.8305 192.087 63.3534 192.507 63.1758 193.039" stroke="#333333" stroke-width="1.20762" stroke-linecap="square"/>
<path d="M67.0844 191.517C66.7204 191.436 66.0683 190.304 65.8298 189.997C65.3184 189.34 64.672 188.803 64.165 188.152C63.1871 186.894 62.2492 185.618 61.3422 184.303C59.8476 182.136 58.4843 180.121 56.4565 178.296C55.0999 177.075 54.1666 175.501 52.9701 174.134C52.2486 173.309 51.9902 172.176 51.2329 171.335C50.682 170.723 50.2737 170.088 49.8095 169.417C48.635 167.72 47.3486 166.062 46.1301 164.374C45.0468 162.874 43.8109 161.559 42.7644 160.032C41.8038 158.63 40.8036 157.356 39.9174 155.906C39.1948 154.723 38.0123 153.875 37.2875 152.721C31.5124 143.524 24.9706 134.704 19.4214 125.313C18.9369 124.493 18.1194 123.987 17.6843 123.117C17.1946 122.138 16.5291 121.354 15.9351 120.463C14.2922 117.999 12.8227 115.137 10.8443 112.911C8.966 110.798 7.49963 108.34 5.80173 106.083C4.42926 104.26 2.51371 102.172 1.94141 99.8828" stroke="#333333" stroke-width="1.20762" stroke-linecap="square"/>
<path d="M125.06 104.228C124.658 102.518 124.626 100.861 124.626 99.1133C124.626 96.5599 124.313 94.1374 123.866 91.6339C123.285 88.3772 123.323 84.903 123.323 81.5971C123.323 78.5691 123.323 75.5412 123.323 72.5133C123.323 71.3857 123.396 70.221 123.275 69.0993C123.194 68.3456 123.208 66.9814 122.672 66.4453" stroke="#333333" stroke-width="1.20762" stroke-linecap="square"/>
<path d="M40.5924 92.9362C39.9773 92.3894 39.1297 92.3078 38.4692 91.8505C37.3537 91.0782 36.2537 90.1425 35.1276 89.3292C33.1134 87.8745 30.999 86.4525 29.1803 84.7812C27.7105 83.4307 26.0548 82.3072 24.6203 80.8727C23.2893 79.5417 21.6707 78.5746 20.3498 77.2536C19.1261 76.0299 17.964 74.8267 16.6101 73.719C15.5814 72.8773 14.8178 71.7457 13.8837 70.8117C13.1634 70.0913 12.2276 69.6468 11.4951 68.9539C9.9515 67.4937 8.20405 66.3018 6.59736 64.9247C4.69275 63.2922 2.68986 61.4078 1.07227 59.4961" stroke="#333333" stroke-width="1.20762" stroke-linecap="square"/>
<path d="M2.37597 58.8438C2.37597 60.7954 2.19074 62.864 2.48454 64.8031C2.6489 65.8879 2.81026 66.9628 2.81026 68.0603C2.81026 69.8831 3.24455 71.6366 3.24455 73.4406C3.24455 77.4055 3.24455 81.3704 3.24455 85.3352C3.24455 88.2954 3.62633 91.2014 3.67883 94.1416C3.71249 96.0262 4.29996 97.8364 4.33026 99.715C4.37606 102.554 4.62213 105.175 4.33026 108.039C4.118 110.122 3.89598 112.128 3.89598 114.215" stroke="#333333" stroke-width="1.20762" stroke-linecap="square"/>
<path d="M89.6661 127.244C89.6661 122.805 89.7739 118.324 89.3404 113.902C89.0114 110.546 88.6503 107.098 88.5804 103.745C88.4452 97.2543 88.3633 90.7556 88.3633 84.25" stroke="#333333" stroke-width="1.20762" stroke-linecap="square"/>
<path d="M89.666 127.242C89.1778 128.902 88.1819 130.795 87.4946 132.405C86.2681 135.279 85.278 138.174 83.7066 140.898C83.1179 141.918 82.6982 142.978 82.2349 144.059C81.7748 145.132 80.9816 146.079 80.5942 147.171C80.0882 148.597 79.1751 149.904 78.471 151.249C77.0902 153.885 75.1032 156.304 73.5974 158.897C72.888 160.119 71.9703 161.152 71.2209 162.323C70.7265 163.095 68.418 167.532 67.541 167.825" stroke="#333333" stroke-width="1.20762" stroke-linecap="square"/>
<path d="M67.709 166.059C68.33 162.178 68.5776 158.578 68.5776 154.672C68.5776 151.209 68.5776 147.747 68.5776 144.285C68.5776 141.031 69.0525 134.955 69.0525 131.719" stroke="#333333" stroke-width="1.20762" stroke-linecap="square"/>
<path d="M69.9062 134.411C70.5398 131.402 72.2023 128.559 73.851 126.003C74.8136 124.511 75.5946 122.774 76.6377 121.383" stroke="#333333" stroke-width="1.20762" stroke-linecap="square"/>
<path d="M76.6387 122.684C76.9508 116.128 77.7244 109.682 77.7244 103.141" stroke="#333333" stroke-width="1.20762" stroke-linecap="square"/>
<path d="M48.8438 101.402C54.4509 102.017 59.9729 101.619 65.6 101.619C67.9089 101.619 70.1831 101.779 72.4882 101.849C75.03 101.926 77.8308 101.771 80.3295 102.271" stroke="#333333" stroke-width="1.20762" stroke-linecap="square"/>
<path d="M77.9414 99.8828C77.9414 103.888 77.977 107.838 78.3757 111.826" stroke="#333333" stroke-width="1.20762" stroke-linecap="square"/>
<path d="M50.7987 98.582C50.6708 103.954 50.4804 109.256 50.7504 114.627C50.8737 117.078 50.9621 119.581 51.3415 122.009C51.6037 123.687 51.6931 125.851 51.233 127.462" stroke="#333333" stroke-width="1.20762" stroke-linecap="square"/>
<path d="M47.3242 121.816C49.7958 124.714 52.278 127.635 54.683 130.587C55.6693 131.797 57.1264 132.736 57.7471 134.194C58.3215 135.542 59.832 136.3 60.4614 137.608C60.927 138.575 61.3993 139.544 61.8728 140.491" stroke="#333333" stroke-width="1.20762" stroke-linecap="square"/>
<path d="M58.6406 134.406C59.2209 138.505 58.9911 140.359 59.2053 144.483C59.4062 148.35 58.8755 151.575 58.9761 155.448C59.0561 158.527 59.2053 161.504 59.2053 164.592" stroke="#333333" stroke-width="1.20762" stroke-linecap="square"/>
<path d="M60.1521 167.825C57.1292 163.795 55.9431 159.686 53.2666 155.902C48.3964 148.009 46.9884 143.659 43.6321 137.618C42.355 135.319 41.5711 132.745 40.1578 130.524C39.4213 129.367 38.9289 127.751 37.9863 126.809" stroke="#333333" stroke-width="1.20762" stroke-linecap="square"/>
<path d="M40.5923 87.9414C40.5412 89.8811 40.1728 91.7953 40.158 93.7319C40.1419 95.8343 40.1585 97.909 39.9891 100.005C39.5657 105.244 39.816 110.702 40.1097 115.953C40.4488 122.014 40.8094 128.119 40.8094 134.193" stroke="#333333" stroke-width="1.20762" stroke-linecap="square"/>
<path d="M43.2676 84.8203C43.2676 86.8776 43.5483 88.926 43.5483 90.9971" stroke="#333333" stroke-width="1.20762" stroke-linecap="square"/>
<path d="M42.8457 85.3828C43.9613 85.4293 45.0308 85.6636 46.1525 85.6636C46.6325 85.6636 47.3506 85.7955 47.7591 85.5232" stroke="#333333" stroke-width="1.20762" stroke-linecap="square"/>
<path d="M47.7598 84.8203C47.9287 86.6368 47.5993 88.6707 48.0405 90.4356" stroke="#333333" stroke-width="1.20762" stroke-linecap="square"/>
<path d="M49.7239 89.5938C48.5177 89.5938 47.3114 89.5938 46.1052 89.5938C45.275 89.5938 44.5196 89.8745 43.6875 89.8745" stroke="#333333" stroke-width="1.20762" stroke-linecap="square"/>
<path d="M79.2046 85.6602C79.2046 86.2867 79.4985 92.3985 78.9238 92.3985" stroke="#333333" stroke-width="1.20762" stroke-linecap="square"/>
<path d="M78.7832 86.2225C80.1789 86.2225 81.7794 86.1644 83.1351 86.5033" stroke="#333333" stroke-width="1.20762" stroke-linecap="square"/>
<path d="M83.416 85.1016V91.2784" stroke="#333333" stroke-width="1.20762" stroke-linecap="square"/>
<path d="M84.6802 90.4336C82.8952 90.4861 81.1319 90.7144 79.3457 90.7144" stroke="#333333" stroke-width="1.20762" stroke-linecap="square"/>
<path d="M69.0977 88.0477C70.7578 88.0477 72.4252 87.9505 74.0578 88.2973C74.8481 88.4651 75.5945 88.4688 76.3975 88.4688" stroke="#333333" stroke-width="1.20762" stroke-linecap="square"/>
<path d="M50.2852 87.4883C53.1343 88.0362 56.2327 88.1322 59.1292 87.9094" stroke="#333333" stroke-width="1.20762" stroke-linecap="square"/>
<path d="M64.2313 4.32031C62.9555 5.87955 61.512 7.14253 60.1238 8.59244C59.1764 9.58189 58.0261 10.6008 57.2122 11.6861C56.5242 12.6033 55.4442 13.2633 54.6298 14.0777C54.077 14.6306 53.408 15.0077 52.8447 15.5509C52.1656 16.2058 51.4257 17.2111 50.5917 17.648C49.6221 18.1558 48.8503 19.3678 48.096 20.1437C46.9969 21.2741 46.0416 22.5847 44.8204 23.5839C43.3927 24.752 42.0024 26.1509 40.6782 27.4054C38.9131 29.0777 37.2405 30.8339 35.4962 32.5181C33.7262 34.2271 31.8961 36.0768 30.0022 37.7001C27.9105 39.4931 26.0558 41.4909 24.023 43.3674C22.1797 45.0689 20.4238 47.0956 18.373 48.4627" stroke="#333333" stroke-width="1.20762" stroke-linecap="square"/>
<path d="M59.5521 86.2083C58.2635 85.5261 57.0106 84.4269 55.9646 83.4007C54.367 81.8332 52.5918 80.4844 51.2852 78.6433C49.8814 76.6652 48.1542 74.8797 46.4498 73.1753C44.3001 71.0256 42.1349 68.9153 39.8813 66.8494C37.5388 64.7021 35.0505 62.7986 32.7928 60.5409C31.3112 59.0593 29.7819 57.6133 28.4081 56.0348C27.3755 54.8484 26.0056 54.0514 24.9938 52.8372C24.2431 51.9363 23.1263 51.2847 22.4288 50.3935C21.3469 49.0111 19.9954 47.2548 18.5293 46.2773" stroke="#333333" stroke-width="1.20762" stroke-linecap="square"/>
<path d="M57.3672 89.4826C58.7017 87.834 59.8561 86.1405 61.414 84.6646C62.5274 83.6098 63.8036 82.7342 64.8542 81.6836" stroke="#333333" stroke-width="1.20762" stroke-linecap="square"/>
<path d="M69.8464 89.33C69.1186 87.4375 67.2732 86.0648 65.8083 84.7372C64.8775 83.8937 64.2261 82.7894 63.2086 82.0336C62.919 81.8185 62.5957 81.6113 62.3594 81.375" stroke="#333333" stroke-width="1.20762" stroke-linecap="square"/>
<path d="M109.153 45.6523C105.188 50.9396 99.7945 54.8055 95.7389 60.0199C93.99 62.2685 91.8462 64.0512 89.8377 66.0598C87.4517 68.4457 84.9747 70.6964 82.4719 72.9489C80.6099 74.6247 78.6377 76.1992 76.9866 78.0963C75.9028 79.3415 74.4742 80.3074 73.4424 81.5971C72.9019 82.2727 72.0653 82.7455 71.562 83.4342C70.9306 84.2982 69.956 85.0922 69.1876 85.8606C68.5096 86.5386 67.0283 87.4856 66.7266 88.391" stroke="#333333" stroke-width="1.20762" stroke-linecap="square"/>
<path d="M61.5801 1.04297C63.45 3.89093 65.8845 6.14368 68.0619 8.738C68.6742 9.46749 69.3999 10.1421 70.159 10.7137C72.5932 12.5469 75.0857 14.254 77.2474 16.4157C78.197 17.3652 78.889 18.4683 79.9078 19.3707C81.0011 20.3391 82.0379 21.3448 83.0707 22.3776C84.8711 24.178 86.8974 25.7154 88.7207 27.4816C89.8447 28.5706 90.9752 29.6422 92.0309 30.8006C93.7558 32.6932 95.7544 34.3105 97.4556 36.2079C99.0021 37.9328 100.912 39.3406 102.447 41.0953C104.269 43.1772 106.34 45.1789 108.296 47.1352C109.319 48.1582 110.881 49.4302 111.338 50.8007" stroke="#333333" stroke-width="1.20762" stroke-linecap="square"/>
<path d="M107.726 50.6493C107.726 49.6283 107.111 48.8127 106.807 47.8683C106.422 46.6741 105.978 45.6118 105.416 44.4883" stroke="#333333" stroke-width="1.20762" stroke-linecap="square"/>
<path d="M23.0117 42.5664C21.7553 46.4928 20.8195 50.5604 21.279 54.6959" stroke="#333333" stroke-width="1.20762" stroke-linecap="square"/>
<path d="M59.5527 8.39012C60.6401 7.33475 61.9449 6.08609 63.4771 5.75301C64.1501 5.60671 64.7809 5.57422 65.4661 5.57422C66.1528 5.57422 66.9462 5.70765 67.5132 6.13293C67.803 6.35025 68.1918 6.50263 68.3982 6.81232C68.6212 7.14685 68.724 7.45025 68.8854 7.82694" stroke="#333333" stroke-width="1.20762" stroke-linecap="square"/>
<path d="M122.432 64.0664C119.703 66.331 116.455 68.1781 114.112 70.8564C113.582 71.4614 112.806 71.9338 112.172 72.4123C110.922 73.3551 109.603 74.1834 108.37 75.1466C106.675 76.4706 105.04 77.883 103.305 79.1568C99.5543 81.9112 96.2169 85.1488 92.6089 88.0886C90.95 89.4403 89.4161 91.0196 87.863 92.4895C86.8786 93.4212 85.8923 94.3658 84.8814 95.2628C84.4274 95.6657 83.8954 95.9834 83.4622 96.4085C83.1827 96.6829 83.073 96.8725 82.707 96.9944" stroke="#333333" stroke-width="1.20762" stroke-linecap="square"/>
<path d="M125.009 71.917C124.589 69.5333 122.187 67.6869 119.853 67.3534C119.004 67.2321 118.189 67.1101 117.379 67.4641C116.45 67.8706 115.553 67.8973 114.814 68.6359" stroke="#333333" stroke-width="1.20762" stroke-linecap="square"/>
<path d="M8.18991 63.744C6.80591 62.4369 4.96873 63.4832 3.59355 64.2904C2.98312 64.6487 1.78912 65.2351 1.56858 65.9457C1.35125 66.646 1.53644 67.6295 1.53644 68.3725" stroke="#333333" stroke-width="1.20762" stroke-linecap="square"/>
<path d="M60.2598 185.095C61.2645 186.028 62.4048 186.914 63.8436 186.975C65.0822 187.028 66.1691 187.2 67.3954 186.943C69.2817 186.548 70.2854 184.905 71.5417 183.648" stroke="#333333" stroke-width="1.20762" stroke-linecap="square"/>
<path d="M62.3126 90.2148C61.8516 90.7496 61.4029 91.2668 60.9964 91.8403C60.7198 92.2305 60.3066 92.5346 59.9973 92.9028C59.2019 93.8497 58.3347 94.7202 57.5076 95.6384C57.1532 96.0317 56.8654 96.5145 56.4609 96.8515" stroke="#333333" stroke-width="1.20762" stroke-linecap="round"/>
<path d="M57.2461 96.9258C58.7811 97.4243 60.3409 97.847 61.8926 98.2896C62.2876 98.4023 62.9495 98.4913 63.3119 98.7812" stroke="#333333" stroke-width="1.20762" stroke-linecap="round"/>
<path d="M63.7402 98.7072C65.2935 97.5693 66.9588 96.3057 68.022 94.7109" stroke="#333333" stroke-width="1.20762" stroke-linecap="round"/>
<path d="M68.592 94.2133C66.911 92.7984 65.2556 91.1774 63.3429 90.0664C62.5183 89.5874 61.6339 89.3133 60.7422 89.0039" stroke="#333333" stroke-width="1.20762" stroke-linecap="round"/>
</svg>
