<svg width="145" height="26" viewBox="0 0 145 26" fill="none" xmlns="http://www.w3.org/2000/svg">
<path fill-rule="evenodd" clip-rule="evenodd" d="M0.297219 14.8808C0.265015 14.9113 0.223611 14.9235 0.182206 14.9235C0.122398 14.9662 0.0671917 15.0272 0.0257868 15.1004H0.0349879C-0.0708248 15.3018 0.0901945 15.3384 0.163803 15.436C0.242013 15.5458 0.361627 15.5153 0.449038 15.6068C0.490443 15.6007 0.527247 15.6068 0.564051 15.6313C0.683666 15.7655 0.858487 15.6435 0.973501 15.7899C1.01491 15.7838 1.05171 15.7899 1.09311 15.8082C1.22193 15.9424 1.39215 15.8387 1.52097 15.9546L1.75559 15.9851C1.87521 16.1194 2.05003 16.0034 2.16964 16.1377C2.25245 16.1377 2.33526 16.1499 2.41807 16.156C2.50548 16.2475 2.5929 16.2475 2.68031 16.156C2.72631 16.156 2.77232 16.156 2.81832 16.156C3.12196 16.3451 3.4624 16.1072 3.76604 16.3024C3.89025 16.3085 4.01447 16.3207 4.14328 16.3268C4.35491 16.4977 4.61714 16.2963 4.82416 16.4794L5.06799 16.5038C5.27502 16.6807 5.53265 16.4672 5.73967 16.6624C5.82708 16.6685 5.90989 16.6746 5.9973 16.6868C6.16292 16.8332 6.37915 16.6746 6.54477 16.8332C6.62758 16.8393 6.71039 16.8515 6.7932 16.8576C7.12904 17.059 7.51089 16.7844 7.84213 17.0224C7.89273 17.0773 7.93414 17.1444 7.98934 17.1871L7.98014 17.1749C8.04455 17.3031 8.17337 17.2664 8.24697 17.3641H8.24237C8.39419 17.5654 8.62882 17.3641 8.78524 17.541C8.82664 17.5349 8.86805 17.541 8.90485 17.5654C9.12568 17.6691 9.34191 17.6813 9.55813 17.5654C9.64094 17.5593 9.71915 17.5532 9.80196 17.541C10.0412 17.419 10.2758 17.419 10.515 17.541C10.5427 17.5227 10.5657 17.5227 10.5933 17.541C10.6577 17.4861 10.7175 17.48 10.7773 17.541L11.2879 17.5654C11.7664 17.7729 12.2771 17.4922 12.7509 17.7241C12.8797 17.7241 13.0085 17.7241 13.1328 17.7241C13.2202 17.8339 13.3076 17.8278 13.3996 17.7302C13.487 17.7302 13.579 17.7363 13.671 17.7424C13.8827 17.9132 14.1403 17.7119 14.3519 17.8949C14.4347 17.8949 14.5129 17.9071 14.5957 17.9071C14.8534 18.1085 15.157 17.8705 15.4192 18.0657C15.5434 18.0718 15.6677 18.0779 15.7919 18.084C16.0863 18.2915 16.4314 18.0291 16.7212 18.2488H16.7166C17.0156 18.4867 17.3653 18.2061 17.6643 18.4196C17.7011 18.4074 17.7379 18.4074 17.7747 18.4318C18.3038 18.6637 18.8558 18.3708 19.3849 18.5966C20.0842 18.6027 20.7881 18.6149 21.4874 18.621C21.653 18.7735 21.8692 18.6027 22.0302 18.7735C22.113 18.7796 22.2004 18.7857 22.2833 18.7918C22.4443 18.9566 22.6605 18.7735 22.8169 18.9505H22.8123C23.0101 19.1701 23.2816 18.92 23.484 19.1274C23.5714 19.1335 23.6588 19.1396 23.7462 19.1518C23.829 19.2372 23.9441 19.2128 24.0315 19.2982C24.0683 19.286 24.1051 19.2982 24.1419 19.3165C24.2569 19.4691 24.4363 19.3288 24.5513 19.4813C24.6387 19.4813 24.7215 19.4935 24.809 19.4996C24.97 19.6643 25.1862 19.4752 25.3426 19.6582C25.384 19.646 25.43 19.6582 25.4668 19.6704C25.6279 19.8352 25.8487 19.6521 26.0097 19.8291C26.0511 19.823 26.0925 19.8291 26.1293 19.8474C26.2903 20.0121 26.5112 19.8352 26.6768 20.006C26.7182 19.9938 26.755 19.9999 26.7918 20.0182C26.9528 20.2013 27.1736 20.006 27.3347 20.183C27.4635 20.1891 27.5923 20.1952 27.7211 20.2074C27.8085 20.2928 27.9235 20.2806 28.0155 20.3477C28.0938 20.3538 28.172 20.3599 28.2502 20.3721C28.4112 20.5429 28.632 20.3599 28.793 20.5307C28.8759 20.5429 28.9633 20.5551 29.0461 20.5613C29.1289 20.6406 29.2439 20.6162 29.3267 20.7016C29.3635 20.6894 29.4049 20.7016 29.4371 20.7138C29.5475 20.8663 29.727 20.726 29.842 20.8785C29.8834 20.9395 29.9248 20.9395 29.9708 20.8846C30.0168 20.8846 30.0628 20.8846 30.1042 20.8846C30.2192 21.025 30.3986 20.8907 30.509 21.0433C30.5504 21.0372 30.5919 21.0433 30.6333 21.0616C30.7575 21.1897 30.9277 21.0799 31.0519 21.208C31.0887 21.2019 31.1255 21.208 31.1577 21.2324C31.2405 21.33 31.3601 21.3056 31.4476 21.385C31.5304 21.3972 31.6086 21.4094 31.6914 21.4216C31.7788 21.4948 31.8892 21.4826 31.9766 21.5619C32.0594 21.5741 32.1376 21.5863 32.2205 21.5924C32.3033 21.6778 32.4183 21.6534 32.4965 21.7388C32.5793 21.751 32.6667 21.7571 32.7495 21.7693C32.8369 21.8487 32.9473 21.8365 33.0393 21.9097C33.0762 21.8975 33.1084 21.8975 33.1452 21.9219C33.2648 22.0744 33.4442 21.9524 33.5684 22.0866C33.6512 22.0927 33.7294 22.0988 33.8122 22.111C33.9733 22.2758 34.1941 22.0927 34.3505 22.2697C34.4793 22.2758 34.6081 22.2819 34.7416 22.2941C34.9532 22.4649 35.2062 22.2575 35.4132 22.4466L35.6617 22.4588C35.7031 22.5137 35.7491 22.5137 35.7905 22.4588C35.8825 22.4588 35.9699 22.4588 36.0619 22.4588C36.2275 22.6175 36.4438 22.4466 36.6094 22.6114C36.6922 22.6114 36.7704 22.6236 36.8532 22.6297C36.982 22.7395 37.1154 22.7334 37.2443 22.6297C37.2903 22.6297 37.3363 22.6297 37.3823 22.6297C37.5939 22.8005 37.8515 22.5991 38.0632 22.7822C38.1874 22.7883 38.3162 22.8005 38.4404 22.8066C38.698 22.9896 38.9971 22.7639 39.2547 22.953C39.3789 22.9591 39.5077 22.9713 39.6319 22.9774C39.839 23.1483 40.0966 22.9408 40.3036 23.13C40.3864 23.1361 40.4738 23.1422 40.5567 23.1544C40.8143 23.3313 41.1133 23.1117 41.3709 23.3008C41.4952 23.3069 41.624 23.313 41.7482 23.3191C42.0886 23.5327 42.4751 23.2581 42.8155 23.4839H43.0732C43.3262 23.6974 43.6298 23.4534 43.8875 23.6547C43.9197 23.6425 43.9473 23.6364 43.9795 23.6547C44.0393 23.5876 44.0991 23.5876 44.1543 23.6547C44.2371 23.6608 44.3199 23.6669 44.3981 23.673C44.6971 23.8805 45.0376 23.612 45.332 23.8316L45.5897 23.8561C45.7093 23.9781 45.8795 23.8622 45.9991 24.0025C46.0819 24.0086 46.1647 24.0147 46.2475 24.0208C46.4592 24.1977 46.7214 23.9964 46.933 24.1733C47.1446 24.1855 47.3609 24.1916 47.5725 24.2038C47.6921 24.332 47.8623 24.2099 47.9773 24.3564C48.0602 24.3564 48.1476 24.3686 48.2304 24.3686C48.5156 24.5943 48.8883 24.2465 49.1505 24.6187C49.3115 24.753 49.4909 24.7652 49.6749 24.7774C50.158 24.7774 50.6457 24.7469 51.1287 24.8079C51.1931 24.8323 51.2621 24.8384 51.3311 24.8384C51.4968 24.8262 51.6624 24.8567 51.828 24.9055C52.2191 24.9787 52.6147 24.9482 53.0103 24.9665C53.1254 24.9665 53.2404 24.9665 53.3554 24.9787C54.2709 24.9787 55.1864 24.9848 56.1019 24.9787C56.5528 24.9604 57.0036 24.8933 57.4499 25.0458C57.6707 25.113 57.8961 25.1252 58.1216 25.1313C58.1952 25.1313 58.2734 25.1313 58.347 25.1374C58.5034 25.1374 58.6552 25.1435 58.8116 25.1374C60.3436 25.0947 61.8756 25.1557 63.4076 25.1374C63.4858 25.1374 63.564 25.1374 63.6422 25.1374C63.7572 25.1374 63.8723 25.1374 63.9873 25.1374C64.0609 25.1435 64.1391 25.1374 64.2127 25.1374C64.6958 25.1252 65.1834 25.1252 65.6711 25.1374C65.7493 25.1496 65.8229 25.1496 65.9011 25.1374C66.2139 25.1252 66.5222 25.1191 66.8304 25.1496C67.6355 25.1252 68.4406 25.2228 69.2411 25.0825C69.8898 24.8384 70.5569 24.997 71.2101 24.9543C71.3988 24.9665 71.5828 24.936 71.7668 24.8872C72.2039 24.692 72.6593 24.7896 73.1056 24.7591C73.17 24.7591 73.239 24.7591 73.3034 24.7591C73.4 24.7591 73.492 24.7408 73.5886 24.7164C73.6484 24.7042 73.7082 24.6798 73.7634 24.6492C73.8463 24.5272 73.9337 24.5211 74.0257 24.637C74.1223 24.6492 74.2097 24.6187 74.2741 24.5211C74.6191 24.3869 74.9688 24.4357 75.3184 24.4906C75.3828 24.5211 75.4426 24.5455 75.5117 24.5638C75.6129 24.5821 75.7095 24.5821 75.8107 24.5821C75.9763 24.5821 76.1465 24.5577 76.3075 24.5089C76.5606 24.393 76.8228 24.4174 77.085 24.3747C77.1495 24.3625 77.2139 24.3442 77.2783 24.3259C77.5635 24.1977 77.8625 24.2465 78.157 24.2282C78.2904 24.2282 78.4238 24.1977 78.5526 24.1611C78.7734 24.0574 79.0035 24.0574 79.2335 24.0513C79.3669 24.0452 79.5003 24.0147 79.6199 23.9232C79.8362 23.6181 80.103 23.7523 80.356 23.7828C80.448 23.8194 80.5447 23.8194 80.6367 23.795C80.7839 23.7462 80.9311 23.6974 81.0829 23.673C81.1703 23.6608 81.2577 23.6364 81.3452 23.6059C81.5108 23.5327 81.681 23.5022 81.8512 23.4778C81.9064 23.4656 81.9616 23.4534 82.0168 23.4289C82.1963 23.3435 82.3803 23.3191 82.5643 23.3069C82.6149 23.3008 82.6609 23.2825 82.7115 23.2642C82.7759 23.2276 82.8219 23.1483 82.8863 23.1117C82.9093 23.1117 82.9323 23.1117 82.9553 23.1117C82.9875 23.0934 83.0152 23.0934 83.0474 23.1117C83.2176 22.9774 83.3786 23.069 83.5442 23.1422C83.7604 23.191 83.9767 23.1666 84.1883 23.1056C84.6714 22.9408 85.159 23.0385 85.6467 23.0263C86.5622 22.8615 87.4961 22.9225 88.3978 22.6663C89.8976 22.2453 91.4388 22.3795 92.9339 21.9951C93.1502 21.9402 93.371 21.928 93.5412 21.7083C94.3831 21.5009 95.2342 21.7693 96.0899 21.5863C97.4793 21.2812 98.8687 20.9395 100.249 20.5674C102.485 19.9633 104.739 19.5728 107.016 19.3532C107.527 19.3043 108.019 18.8955 108.475 18.9016C109.303 18.9139 110.112 18.743 110.885 18.4989C112.528 17.9803 114.202 18.0657 115.845 18.0169C117.262 17.9742 118.702 18.0901 120.132 18.1024C121.168 18.1146 122.18 17.9315 123.192 17.5654C123.822 17.3336 124.531 17.2848 125.211 17.2298C125.566 17.2054 125.915 17.1322 126.242 16.937C126.628 16.7051 126.927 16.3634 126.9 15.7472C126.872 15.2102 127.088 15.0577 127.438 14.9601C128.34 14.7099 129.232 14.5025 130.166 14.6794C131.027 14.8381 131.859 14.3255 132.72 14.3743C132.917 14.3255 133.111 14.2279 133.313 14.1974C133.373 14.1852 133.433 14.1669 133.492 14.1425C133.603 14.0937 133.709 14.0388 133.819 13.9961C133.87 13.9777 133.925 13.9533 133.975 13.9289C134.077 13.8801 134.178 13.8435 134.288 13.8252C134.371 13.813 134.449 13.7886 134.528 13.7581C134.666 13.7032 134.804 13.6788 134.946 13.6727C135.066 13.6666 135.185 13.6422 135.305 13.6056C135.512 13.514 135.737 13.5201 135.949 13.4652C136.014 13.4469 136.073 13.4164 136.129 13.3737C136.602 12.9405 137.205 13.3615 137.688 12.971C137.743 12.9222 137.794 12.8673 137.831 12.7941C137.863 12.6537 137.831 12.5317 137.766 12.4219C137.72 12.3548 137.665 12.2998 137.605 12.2632C137.449 12.1717 137.288 12.0985 137.118 12.0497C136.625 11.9582 136.129 12.007 135.632 11.9948C135.425 12.007 135.222 11.9948 135.02 11.9093C134.854 11.8605 134.684 11.8422 134.514 11.8361C134.224 11.8361 133.934 11.8666 133.649 11.7751C133.561 11.7507 133.469 11.7446 133.382 11.7568C133.322 11.7385 133.276 11.8666 133.207 11.7873C133.244 11.7629 133.281 11.7446 133.318 11.7263C133.414 11.7019 133.511 11.708 133.607 11.6836C133.658 11.6714 133.713 11.647 133.759 11.6287C133.911 11.5555 134.072 11.5555 134.233 11.5433C134.316 11.5372 134.399 11.5066 134.472 11.4639C134.564 11.3358 134.647 11.3846 134.725 11.4944C134.85 11.5433 134.969 11.5311 135.093 11.4944C136.271 11.2443 137.44 10.8599 138.645 11.1406C138.737 11.1772 138.829 11.1833 138.921 11.1955C139.068 11.2199 139.215 11.2626 139.358 11.3175C139.446 11.3541 139.533 11.3785 139.62 11.3968C139.74 11.4273 139.855 11.4761 139.975 11.525C140.039 11.5494 140.099 11.5677 140.163 11.5799C140.43 11.5982 140.697 11.6348 140.954 11.7446C141.534 11.7629 142.114 11.8727 142.694 11.7446C142.864 11.708 143.02 11.6104 143.2 11.6165C143.264 11.6165 143.333 11.6165 143.397 11.6104C143.692 11.5799 143.991 11.6348 144.285 11.5372C144.35 11.5127 144.405 11.4639 144.456 11.4029C144.548 11.1711 144.488 10.9819 144.359 10.8111C144.308 10.7562 144.253 10.7135 144.189 10.6829C144.069 10.6219 143.945 10.567 143.816 10.5243C143.752 10.506 143.683 10.506 143.618 10.5182C143.223 10.6097 142.832 10.6646 142.436 10.4938C142.275 10.3169 142.049 10.4938 141.884 10.3291C141.764 10.3291 141.645 10.3291 141.53 10.3291C141.387 10.4389 141.24 10.445 141.097 10.3291C141.024 10.3291 140.95 10.3291 140.876 10.3352C140.816 10.3962 140.752 10.3962 140.692 10.3352C140.609 10.3291 140.531 10.323 140.448 10.3108C140.333 10.1704 140.159 10.2986 140.048 10.1521H140.053C139.671 9.92026 139.252 9.93246 138.852 9.79823H138.732C138.558 9.6579 138.378 9.6701 138.203 9.78603C137.983 9.78603 137.762 9.78603 137.541 9.78603C136.57 9.64569 135.599 9.65179 134.629 9.78603C134.546 9.78603 134.463 9.79823 134.385 9.80433C134.09 9.96907 133.787 9.84704 133.488 9.88365C133.235 9.91416 133.065 9.82263 133.083 9.41994C133.101 9.09046 133.106 8.80979 133.465 8.81589C133.893 8.82199 134.33 8.91961 134.753 8.75488C134.84 8.75488 134.923 8.74267 135.011 8.73657C135.572 8.55353 136.138 8.70606 136.704 8.65115C136.938 8.62674 137.187 8.73657 137.412 8.56573C137.444 8.54742 137.481 8.54132 137.518 8.55963C137.73 8.38268 137.992 8.58403 138.203 8.41319C138.378 8.40709 138.548 8.40099 138.719 8.39489C138.843 8.27286 138.985 8.32167 139.123 8.31557C139.179 8.33387 139.234 8.32777 139.289 8.30947C139.372 8.27286 139.45 8.21795 139.524 8.16303C139.574 8.12642 139.625 8.07761 139.671 8.0288C139.938 7.71152 140.136 7.36374 139.892 6.86951C139.855 6.8024 139.809 6.74749 139.754 6.70478C139.519 6.58275 139.275 6.50343 139.022 6.45461C138.893 6.44241 138.765 6.45461 138.645 6.52783C138.576 6.47902 138.581 6.7902 138.479 6.58885C138.429 6.53393 138.374 6.49733 138.314 6.47292C137.909 6.35699 137.486 6.49122 137.081 6.33869C136.961 6.29598 136.842 6.27767 136.727 6.26547C136.616 6.25327 136.506 6.22886 136.395 6.18615C136.345 6.16174 136.29 6.14954 136.239 6.13124C136.138 6.10683 136.032 6.08853 135.935 6.04582C135.889 6.02141 135.839 6.00311 135.793 5.9848C135.701 5.94819 135.604 5.92379 135.517 5.86887C135.475 5.83837 135.429 5.81396 135.383 5.78955C135.319 5.74684 135.25 5.71023 135.181 5.67973C135.13 5.66752 135.084 5.66752 135.038 5.67973C134.951 5.78345 134.882 5.72244 134.817 5.63091C134.767 5.60651 134.716 5.58821 134.666 5.576C134.445 5.5516 134.224 5.5638 134.012 5.46008C133.957 5.43567 133.897 5.41736 133.837 5.39906C133.561 5.34414 133.276 5.37465 133.009 5.24042C132.945 5.21601 132.876 5.19771 132.812 5.18551C132.494 5.1611 132.172 5.155 131.868 5.02077C130.451 4.95365 129.108 4.45333 127.769 3.89809C127.047 3.59912 126.283 3.69674 125.533 3.72115C124.802 3.74556 124.098 3.78827 123.495 3.00728C123.127 2.53136 122.575 2.62288 122.097 2.7083C121.195 2.87304 120.298 2.89745 119.396 2.7083C118.867 2.59848 118.347 2.84254 117.814 2.84864C114.308 2.84864 110.798 2.97067 107.297 2.65949C105.245 2.47645 103.225 2.01884 101.215 1.4636C100.212 1.18293 99.2045 1.15242 98.197 1.40869C97.7461 1.52461 97.3367 1.24395 96.8904 1.25005C94.995 1.29276 93.0996 1.22564 91.2041 1.26835C89.9896 1.29886 88.7934 1.62224 87.5927 1.84189C87.3535 1.92731 87.1142 2.00663 86.8658 2.00053C86.7692 2.00663 86.668 2.03104 86.576 2.06765C86.3413 2.18358 86.0929 2.18358 85.8491 2.23239C85.7893 2.24459 85.7295 2.2629 85.6743 2.2873C85.4718 2.37882 85.2602 2.36052 85.0486 2.37882C84.9566 2.38492 84.8646 2.40933 84.7726 2.43984C84.5287 2.55577 84.2665 2.50695 84.0181 2.58017C83.9537 2.60458 83.8939 2.64729 83.8433 2.7022C83.627 3.00117 83.3188 2.7022 83.0888 2.91575L83.029 2.93406H82.9645C82.7115 3.14151 82.4125 2.89135 82.1595 3.0927L82.0996 3.111H82.0398C81.9386 3.20863 81.8374 3.19032 81.7362 3.111L81.6994 3.12321L81.6626 3.111C81.4924 3.26964 81.2623 3.0866 81.1013 3.28185H81.1059C80.8575 3.48319 80.5585 3.23913 80.3054 3.43438L80.2456 3.45268H80.1858C79.9328 3.66014 79.6291 3.40997 79.3761 3.61132C79.2979 3.61132 79.2151 3.62353 79.1369 3.62963C78.9253 3.80657 78.6676 3.61743 78.456 3.76996C78.3272 3.78217 78.203 3.78827 78.0742 3.80047C77.7245 4.01402 77.3427 3.74556 76.993 3.95911C76.8136 3.95911 76.6388 3.95911 76.4594 3.95911C76.4134 3.90419 76.372 3.90419 76.326 3.95911L75.5531 3.97131C75.4058 4.08114 75.2586 4.08724 75.116 3.97131C74.9918 3.97131 74.863 3.97131 74.7388 3.96521C74.6099 3.83708 74.4765 3.84928 74.3431 3.95911C74.2189 3.96521 74.0901 3.97131 73.9659 3.97741C73.9061 4.03843 73.8509 4.05063 73.7956 3.97741C73.7174 3.97741 73.6392 3.97741 73.5656 3.97741C73.4644 4.07504 73.3632 4.06894 73.2666 3.97741L73.2206 3.98962L73.1746 3.97741C72.9859 4.09944 72.7973 4.10555 72.6133 3.97741H72.4937C72.1395 3.83098 71.7852 3.83098 71.4356 3.97131C71.3482 3.97131 71.2561 3.97131 71.1687 3.96521C70.7731 3.84928 70.3774 3.83708 69.9818 3.96521C69.853 3.97131 69.7196 3.98351 69.5907 3.98962C69.3285 3.86759 69.0617 3.81267 68.7902 3.95301C68.7442 3.95301 68.6982 3.95301 68.6522 3.95301C68.5602 3.86148 68.4728 3.86148 68.39 3.96521C68.1232 3.96521 67.8609 3.95911 67.5941 3.95301C67.5067 3.86148 67.4193 3.86148 67.3319 3.95301C67.2859 3.95301 67.2399 3.94691 67.1939 3.9408C67.0604 3.84928 66.9316 3.83708 66.8028 3.95301C66.7568 3.95301 66.7154 3.95911 66.6694 3.96521C66.4946 3.82488 66.3197 3.84318 66.1403 3.95301C66.0529 3.95301 65.9655 3.95301 65.8827 3.95911C65.5653 4.10554 65.2432 4.08114 64.9258 3.96521L64.8798 3.97741L64.8338 3.96521C64.3967 4.18486 63.9275 3.90419 63.4904 4.12385C63.357 4.12995 63.2282 4.13605 63.0948 4.14825C62.8739 4.08724 62.6531 3.96521 62.4277 4.13605L61.664 4.14825C60.9003 4.3191 60.1274 4.19096 59.3637 4.22147C57.7397 4.28249 56.1111 4.12995 54.4871 4.30079H54.3491C53.3462 4.13605 52.3387 4.23368 51.3357 4.23978C50.135 4.23978 48.9297 4.14215 47.7289 4.30079C47.4621 4.3435 47.1952 4.35571 46.9284 4.30079C46.841 4.20927 46.7536 4.20927 46.6662 4.30079C46.5788 4.30079 46.4868 4.30079 46.3994 4.30079C45.7967 4.11775 45.1848 4.27028 44.5775 4.21537C44.3429 4.19707 44.0991 4.29469 43.869 4.12995L43.0824 4.11775C42.4659 3.89809 41.8264 4.18486 41.2099 3.95911C40.8649 3.95301 40.5152 3.94691 40.1702 3.9408C39.7792 3.73335 39.3559 4.00182 38.9649 3.78217H38.9051L38.8452 3.76996C38.5462 3.56251 38.2012 3.82488 37.9021 3.60522C37.7273 3.59912 37.5571 3.59302 37.3869 3.58692C37.1844 3.40387 36.9268 3.62963 36.7244 3.42828C36.683 3.37337 36.6416 3.36726 36.5956 3.41607C36.5496 3.41607 36.5036 3.41607 36.4576 3.41607C36.2459 3.23303 35.9837 3.44658 35.7767 3.25744C35.6939 3.25134 35.6111 3.23913 35.5282 3.23303C35.3672 3.07439 35.1464 3.25134 34.9854 3.07439L34.7324 3.04388C34.6081 2.92796 34.4379 3.03168 34.3183 2.90355C34.2355 2.89745 34.1573 2.89135 34.0745 2.88525C33.9595 2.74491 33.78 2.87914 33.6696 2.72051H33.6052L33.5408 2.7083C33.3844 2.53746 33.1636 2.73271 33.0117 2.54356C32.8553 2.35442 32.6253 2.55577 32.4689 2.37272H32.4091L32.3493 2.36052C32.2343 2.21408 32.0548 2.34832 31.9444 2.19578H31.88L31.8202 2.17747C31.6914 2.04934 31.5212 2.14697 31.3924 2.03104H31.3417L31.2957 2.01884C31.2221 1.90901 31.0933 1.94562 31.0151 1.84799C30.9323 1.84189 30.8449 1.82969 30.7621 1.82359C30.6471 1.69546 30.4768 1.82359 30.3618 1.67105C30.2514 1.50631 30.0674 1.65275 29.957 1.49411H29.9616C29.8144 1.29276 29.5797 1.50631 29.4279 1.31717C29.3175 1.15853 29.1335 1.29886 29.0231 1.14632C28.9771 1.15243 28.9357 1.14632 28.8943 1.12192C28.7746 1.00599 28.609 1.12192 28.494 0.975481H28.4986C28.3836 0.810741 28.1996 0.938873 28.0754 0.80464H28.0201L27.9695 0.792437C27.8867 0.688711 27.7625 0.707018 27.6705 0.633799L27.4359 0.597189C27.3531 0.51787 27.2381 0.536173 27.1506 0.450752H27.0954L27.0402 0.438549C26.962 0.334824 26.8378 0.365334 26.755 0.273811H26.6998L26.6446 0.255505C26.525 0.10907 26.3501 0.237202 26.2305 0.0968685C26.1477 0.0907669 26.0649 0.0846653 25.9821 0.0785637C25.8487 -0.0251617 25.7199 -0.0312634 25.5911 0.0785637L25.3564 0.102968C24.6893 0.316521 24.0039 0.0297508 23.3368 0.255505C23.2586 0.255505 23.1804 0.26771 23.1022 0.273811C22.8399 0.462957 22.5363 0.231102 22.2787 0.42635L22.0348 0.444653C21.952 0.530073 21.837 0.505667 21.7542 0.591087C21.7082 0.597189 21.6668 0.603291 21.6208 0.615494C21.5518 0.725321 21.4184 0.68261 21.3585 0.810741L21.3677 0.798538C21.3125 0.841248 21.2711 0.902264 21.2251 0.957178L21.1791 0.981585H21.1285C21.0595 1.01209 21.0043 1.0731 20.9583 1.15242H20.9629C20.9077 1.19514 20.8663 1.25615 20.8249 1.32937H20.8295C20.7743 1.37208 20.7283 1.43309 20.6961 1.51241L20.7053 1.50021C20.6087 1.57953 20.6363 1.75647 20.5581 1.84799C20.512 1.90901 20.466 1.96392 20.4246 2.03104H20.4292C20.3418 2.11646 20.3648 2.2812 20.2912 2.37882C20.1624 2.51916 20.2636 2.76322 20.1578 2.92796C20.167 2.97677 20.1624 3.02558 20.144 3.07439C20.0198 3.72725 20.1118 4.38621 20.0842 5.04517C20.0704 5.35025 20.144 5.69193 19.8864 5.89938H19.891C19.8128 5.9787 19.6977 5.95429 19.6195 6.03971C19.5873 6.07022 19.5505 6.07632 19.5137 6.07022C19.4217 6.14954 19.3021 6.12513 19.2193 6.22276L19.1687 6.24716H19.1135C18.9893 6.36919 18.819 6.26547 18.6948 6.3875C18.658 6.41191 18.6166 6.418 18.5752 6.4119C18.4556 6.55224 18.2808 6.43021 18.1612 6.57054L18.1014 6.59495H18.0415C17.8805 6.76579 17.6597 6.58275 17.4987 6.74749L17.4389 6.76579H17.3791C17.2319 6.90002 17.0846 6.85731 16.9374 6.77189L16.9006 6.7841L16.8638 6.77189C16.7212 6.86952 16.5786 6.90002 16.436 6.76579H16.3255C16.2473 6.86341 16.1277 6.83291 16.0495 6.93053C16.0219 6.95494 15.9897 6.96104 15.9529 6.95494C15.8793 6.98545 15.8287 7.04646 15.7873 7.13188H15.7965C15.5619 7.49797 15.2674 7.82135 15.2582 8.36438C15.2674 8.40099 15.2674 8.4437 15.2582 8.48031C15.2858 8.56573 15.3318 8.63895 15.387 8.69386C15.5526 8.8708 15.502 9.20639 15.6585 9.39553C15.6171 9.85924 15.3962 9.63959 15.2214 9.59078C15.0972 9.58468 14.973 9.57247 14.8488 9.56637C14.5405 9.45044 14.2369 9.45044 13.9287 9.56637C13.8827 9.56637 13.832 9.56637 13.786 9.56637C13.6526 9.47485 13.5238 9.46265 13.3904 9.57858C13.326 9.6945 13.1926 9.65179 13.1328 9.77992L13.142 9.76772C13.0868 9.81653 13.0361 9.87755 13.0039 9.95077H13.0131C12.8061 10.3047 12.6405 10.6524 12.9533 11.0917C13.096 11.287 13.0638 11.3297 12.7095 11.3541C12.4519 11.348 12.1942 11.3419 11.9366 11.3297C11.5364 11.2504 11.1223 11.2321 10.7497 10.9941C10.3678 11.2321 9.93538 10.9148 9.55353 11.1772H9.56273C9.34651 11.2992 9.11648 11.3846 8.89105 11.5005C8.85425 11.5249 8.81744 11.5311 8.78064 11.525C8.69323 11.6104 8.56901 11.5799 8.4954 11.7019H8.5C8.28378 11.891 8.03995 12.0131 7.82832 12.2083C7.76392 12.3242 7.6351 12.2876 7.57069 12.3975C7.49708 12.4951 7.37747 12.4707 7.30386 12.5683C7.23485 12.6781 7.10604 12.6415 7.04163 12.7636H7.04623C6.96802 12.849 6.84381 12.8185 6.7748 12.9344H6.7794C6.70119 13.0198 6.58157 12.9893 6.50797 13.093L6.45276 13.1113H6.39755C6.31474 13.1968 6.18593 13.1662 6.10772 13.2822L6.05711 13.3005H6.0065C5.87769 13.4164 5.69827 13.3005 5.57865 13.453H5.19681C4.76436 13.691 4.2951 13.3981 3.85805 13.6239C3.77524 13.6239 3.69243 13.6361 3.60962 13.6361C3.49 13.7825 3.31518 13.6483 3.19557 13.8008C3.02995 13.8069 2.86433 13.813 2.69411 13.8191C2.56529 13.9411 2.39507 13.8374 2.26626 13.9716L2.21105 13.9961H2.15584C2.06843 14.0754 1.95342 14.0571 1.87061 14.1425C1.8338 14.1669 1.7924 14.173 1.75099 14.1669C1.66818 14.2584 1.54857 14.2279 1.47036 14.3255L1.41055 14.3438H1.34615C1.18973 14.5147 0.973501 14.3377 0.807881 14.4903C0.771076 14.5147 0.729671 14.5208 0.688266 14.5147C0.605456 14.6062 0.481241 14.5757 0.407633 14.6916H0.412233C0.375429 14.7404 0.329423 14.7831 0.283418 14.8259L0.297219 14.8808Z" fill="#DF5009"/>
</svg>
